<svg xmlns="http://www.w3.org/2000/svg" viewBox="0 0 1200 800" width="1200" height="800">
  <defs>
    <radialGradient id="g" cx="50%" cy="45%" r="65%">
      <stop offset="0" stop-color="#39ff14" stop-opacity="0.22"/>
      <stop offset="0.45" stop-color="#002d12" stop-opacity="0.72"/>
      <stop offset="1" stop-color="#000000" stop-opacity="0.95"/>
    </radialGradient>
    <filter id="glow"><feGaussianBlur stdDeviation="4" result="b"/><feMerge><feMergeNode in="b"/><feMergeNode in="SourceGraphic"/></feMerge></filter>
  </defs>
  <rect width="1200" height="800" rx="42" fill="url(#g)"/>
  <g opacity="0.32" stroke="#39ff14" stroke-width="1">
    <path d="M0 60 H1200"/><path d="M0 120 H1200"/><path d="M0 180 H1200"/><path d="M0 240 H1200"/><path d="M0 300 H1200"/><path d="M0 360 H1200"/><path d="M0 420 H1200"/><path d="M0 480 H1200"/><path d="M0 540 H1200"/><path d="M0 600 H1200"/><path d="M0 660 H1200"/><path d="M0 720 H1200"/><path d="M0 780 H1200"/>
    <path d="M60 0 V800"/><path d="M120 0 V800"/><path d="M180 0 V800"/><path d="M240 0 V800"/><path d="M300 0 V800"/><path d="M360 0 V800"/><path d="M420 0 V800"/><path d="M480 0 V800"/><path d="M540 0 V800"/><path d="M600 0 V800"/><path d="M660 0 V800"/><path d="M720 0 V800"/><path d="M780 0 V800"/><path d="M840 0 V800"/><path d="M900 0 V800"/><path d="M960 0 V800"/><path d="M1020 0 V800"/><path d="M1080 0 V800"/><path d="M1140 0 V800"/>
  </g>
  <circle cx="600" cy="360" r="210" fill="none" stroke="#39ff14" stroke-width="7" opacity="0.7" filter="url(#glow)"/>
  <circle cx="600" cy="360" r="145" fill="none" stroke="#39ff14" stroke-width="2" stroke-dasharray="10 14" opacity="0.5"/>
  <path d="M470 365 h260 M600 235 v260" stroke="#39ff14" stroke-width="18" stroke-linecap="round" opacity="0.75" filter="url(#glow)"/>
  <text x="600" y="650" text-anchor="middle" fill="#eaffea" font-family="Orbitron, Montserrat, Arial" font-size="46" font-weight="900" letter-spacing="5" filter="url(#glow)">TUTORIALES</text>
  <text x="600" y="705" text-anchor="middle" fill="#39ff14" font-family="Montserrat, Arial" font-size="24" font-weight="800" letter-spacing="2">REEMPLAZA ESTA IMAGEN CUANDO TENGAS TU RENDER FINAL</text>
</svg>